<svg width="21" height="22" viewBox="0 0 21 22" fill="none" xmlns="http://www.w3.org/2000/svg">
<path d="M18.375 14.224H6.125C5.89294 14.224 5.67038 14.1304 5.50628 13.9637C5.34219 13.7969 5.25 13.5708 5.25 13.335C5.25 13.0993 5.34219 12.8731 5.50628 12.7064C5.67038 12.5397 5.89294 12.446 6.125 12.446H15.26C15.8451 12.4461 16.4134 12.2475 16.8747 11.8819C17.336 11.5163 17.6639 11.0045 17.8063 10.428L19.25 4.65824C19.2828 4.52703 19.2856 4.38995 19.2583 4.25745C19.231 4.12495 19.1743 4.00053 19.0925 3.89369C19.0074 3.7841 18.8981 3.69641 18.7735 3.63772C18.6488 3.57903 18.5123 3.55099 18.375 3.55586H5.915C5.73448 3.03708 5.40044 2.58772 4.95868 2.2694C4.51693 1.95108 3.98908 1.77938 3.4475 1.77783H2.625C2.39294 1.77783 2.17038 1.8715 2.00628 2.03822C1.84219 2.20494 1.75 2.43107 1.75 2.66685C1.75 2.90263 1.84219 3.12875 2.00628 3.29548C2.17038 3.4622 2.39294 3.55586 2.625 3.55586H3.4475C3.64738 3.54995 3.84323 3.61377 4.00243 3.7367C4.16163 3.85963 4.27459 4.03426 4.3225 4.23151L4.375 4.65824L5.88875 10.668C5.19256 10.6998 4.53732 11.0113 4.06719 11.534C3.59706 12.0567 3.35055 12.7477 3.38188 13.455C3.4132 14.1624 3.71981 14.8281 4.23425 15.3058C4.74868 15.7834 5.42881 16.0339 6.125 16.0021H6.2825C6.13859 16.4049 6.09235 16.8371 6.14769 17.2619C6.20303 17.6868 6.35832 18.0918 6.6004 18.4427C6.84249 18.7937 7.16425 19.0802 7.53843 19.278C7.91262 19.4758 8.3282 19.5791 8.75 19.5791C9.1718 19.5791 9.58738 19.4758 9.96157 19.278C10.3357 19.0802 10.6575 18.7937 10.8996 18.4427C11.1417 18.0918 11.297 17.6868 11.3523 17.2619C11.4076 16.8371 11.3614 16.4049 11.2175 16.0021H13.2825C13.1386 16.4049 13.0924 16.8371 13.1477 17.2619C13.203 17.6868 13.3583 18.0918 13.6004 18.4427C13.8425 18.7937 14.1643 19.0802 14.5384 19.278C14.9126 19.4758 15.3282 19.5791 15.75 19.5791C16.1718 19.5791 16.5874 19.4758 16.9616 19.278C17.3358 19.0802 17.6575 18.7937 17.8996 18.4427C18.1417 18.0918 18.297 17.6868 18.3523 17.2619C18.4076 16.8371 18.3614 16.4049 18.2175 16.0021H18.375C18.6071 16.0021 18.8296 15.9084 18.9937 15.7417C19.1578 15.575 19.25 15.3488 19.25 15.1131C19.25 14.8773 19.1578 14.6512 18.9937 14.4844C18.8296 14.3177 18.6071 14.224 18.375 14.224ZM17.255 5.33389L16.1088 9.99233C16.0608 10.1896 15.9479 10.3642 15.7887 10.4871C15.6295 10.6101 15.4336 10.6739 15.2338 10.668H7.6825L6.37 5.33389H17.255ZM8.75 17.7801C8.57694 17.7801 8.40777 17.728 8.26388 17.6303C8.11998 17.5326 8.00783 17.3938 7.94161 17.2313C7.87538 17.0689 7.85805 16.8901 7.89181 16.7177C7.92558 16.5452 8.00891 16.3868 8.13128 16.2625C8.25365 16.1381 8.40956 16.0535 8.5793 16.0192C8.74903 15.9849 8.92496 16.0025 9.08485 16.0698C9.24473 16.137 9.38139 16.251 9.47754 16.3972C9.57368 16.5434 9.625 16.7153 9.625 16.8911C9.625 17.1269 9.53281 17.353 9.36872 17.5197C9.20462 17.6864 8.98206 17.7801 8.75 17.7801ZM15.75 17.7801C15.5769 17.7801 15.4078 17.728 15.2639 17.6303C15.12 17.5326 15.0078 17.3938 14.9416 17.2313C14.8754 17.0689 14.8581 16.8901 14.8918 16.7177C14.9256 16.5452 15.0089 16.3868 15.1313 16.2625C15.2537 16.1381 15.4096 16.0535 15.5793 16.0192C15.749 15.9849 15.925 16.0025 16.0848 16.0698C16.2447 16.137 16.3814 16.251 16.4775 16.3972C16.5737 16.5434 16.625 16.7153 16.625 16.8911C16.625 17.1269 16.5328 17.353 16.3687 17.5197C16.2046 17.6864 15.9821 17.7801 15.75 17.7801Z" fill="white"/>
</svg>
